<svg width="75" height="75" viewBox="0 0 75 75" fill="none" xmlns="http://www.w3.org/2000/svg">
<path d="M37.5 6.25C20.5594 6.25 6.25 20.5594 6.25 37.5C6.25 54.4406 20.5594 68.75 37.5 68.75C54.4406 68.75 68.75 54.4406 68.75 37.5C68.75 20.5594 54.4406 6.25 37.5 6.25ZM37.5 21.875C42.8969 21.875 46.875 25.85 46.875 31.25C46.875 36.65 42.8969 40.625 37.5 40.625C32.1063 40.625 28.125 36.65 28.125 31.25C28.125 25.85 32.1063 21.875 37.5 21.875ZM21.5438 52.4125C24.3469 48.2875 29.0219 45.5375 34.375 45.5375H40.625C45.9813 45.5375 50.6531 48.2875 53.4563 52.4125C49.4625 56.6875 43.7969 59.375 37.5 59.375C31.2031 59.375 25.5375 56.6875 21.5438 52.4125Z" fill="black"/>
</svg>
