<svg width="157" height="51" viewBox="0 0 157 51" fill="none" xmlns="http://www.w3.org/2000/svg">
<path d="M48.0728 34.5074H41.3897C34.2423 46.0445 22.466 44.0044 17.4713 41.5422C25.491 47.5922 33.7218 45.2707 34.4252 45.2003C35.1287 45.13 38.224 44.0044 39.5607 43.3009C40.8973 42.5975 43.9926 39.9946 44.9775 38.9394C45.7654 38.0952 47.3693 35.633 48.0728 34.5074Z" fill="white"/>
<path d="M1.2209 34.4371H9.85513C19.0892 52.2821 34.3036 49.1266 40.7566 45.3182C33.2997 52.8683 19.7802 50.7733 18.8783 50.6172C15.2245 49.9848 13.5022 48.8698 12.2227 48.0415L12.2182 48.0385C9.02955 45.9742 6.49232 42.9244 5.21991 41.2922C4.20198 39.9865 2.12976 36.1781 1.2209 34.4371Z" fill="black"/>
<path d="M0.37672 18.9605H8.46676C14.7981 1.0217 34.1659 1.24138 40.7566 5.83522C28.9381 -2.98815 18.8146 0.763048 17.8934 0.951349C14.165 1.71348 11.603 3.60997 10.2958 4.60946C7.0391 7.0995 5.7607 8.72278 4.46112 10.6916C3.42145 12.2666 1.30499 16.8604 0.37672 18.9605Z" fill="black"/>
<path d="M49.1457 19.0309H42.455C35.7644 5.45047 22.8568 6.89756 18.0518 9.30673C25.7668 3.38706 33.6848 5.65856 34.3616 5.7274C35.0383 5.79623 38.0161 6.89756 39.3019 7.5859C40.5877 8.27423 43.5655 10.8211 44.5129 11.8536C45.2709 12.6796 48.4689 17.9295 49.1457 19.0309Z" fill="white"/>
<path d="M68.3735 32.0015L66.8724 29.9833C66.4276 30.0723 65.994 30.1168 65.5715 30.1168C64.4707 30.1168 63.4588 29.861 62.5359 29.3495C61.6241 28.838 60.8958 28.1264 60.351 27.2146C59.8173 26.2917 59.5504 25.2577 59.5504 24.1124C59.5504 22.9671 59.8173 21.9386 60.351 21.0268C60.8958 20.115 61.6241 19.4034 62.5359 18.8919C63.4588 18.3804 64.4707 18.1247 65.5715 18.1247C66.6723 18.1247 67.6786 18.3804 68.5903 18.8919C69.5132 19.4034 70.236 20.115 70.7586 21.0268C71.2923 21.9386 71.5592 22.9671 71.5592 24.1124C71.5592 25.1131 71.3535 26.0304 70.942 26.8644C70.5418 27.6872 69.9802 28.371 69.2575 28.9159L71.826 32.0015H68.3735ZM62.4692 24.1124C62.4692 25.1465 62.7472 25.9748 63.3031 26.5975C63.8702 27.2091 64.6263 27.5149 65.5715 27.5149C66.5055 27.5149 67.2505 27.2035 67.8064 26.5808C68.3735 25.9582 68.657 25.1353 68.657 24.1124C68.657 23.0783 68.3735 22.2555 67.8064 21.6439C67.2505 21.0212 66.5055 20.7099 65.5715 20.7099C64.6263 20.7099 63.8702 21.0157 63.3031 21.6272C62.7472 22.2388 62.4692 23.0672 62.4692 24.1124ZM78.8159 18.2915V25.2966C78.8159 25.9971 78.9882 26.5364 79.3329 26.9144C79.6776 27.2925 80.1836 27.4815 80.8507 27.4815C81.5179 27.4815 82.0293 27.2925 82.3852 26.9144C82.741 26.5364 82.9189 25.9971 82.9189 25.2966V18.2915H85.771V25.2799C85.771 26.3251 85.5486 27.2091 85.1038 27.9318C84.659 28.6546 84.0586 29.1994 83.3025 29.5664C82.5575 29.9333 81.7236 30.1168 80.8007 30.1168C79.8778 30.1168 79.0494 29.9388 78.3155 29.583C77.5928 29.2161 77.0201 28.6713 76.5976 27.9485C76.1751 27.2146 75.9638 26.3251 75.9638 25.2799V18.2915H78.8159ZM96.1465 30.1168C95.0457 30.1168 94.0338 29.861 93.1109 29.3495C92.1992 28.838 91.4709 28.1264 90.926 27.2146C90.3923 26.2917 90.1254 25.2577 90.1254 24.1124C90.1254 22.9671 90.3923 21.9386 90.926 21.0268C91.4709 20.115 92.1992 19.4034 93.1109 18.8919C94.0338 18.3804 95.0457 18.1247 96.1465 18.1247C97.2473 18.1247 98.2536 18.3804 99.1654 18.8919C100.088 19.4034 100.811 20.115 101.334 21.0268C101.867 21.9386 102.134 22.9671 102.134 24.1124C102.134 25.2577 101.867 26.2917 101.334 27.2146C100.8 28.1264 100.077 28.838 99.1654 29.3495C98.2536 29.861 97.2473 30.1168 96.1465 30.1168ZM96.1465 27.5149C97.0805 27.5149 97.8255 27.2035 98.3815 26.5808C98.9485 25.9582 99.2321 25.1353 99.2321 24.1124C99.2321 23.0783 98.9485 22.2555 98.3815 21.6439C97.8255 21.0212 97.0805 20.7099 96.1465 20.7099C95.2014 20.7099 94.4453 21.0157 93.8782 21.6272C93.3222 22.2388 93.0442 23.0672 93.0442 24.1124C93.0442 25.1465 93.3222 25.9748 93.8782 26.5975C94.4453 27.2091 95.2014 27.5149 96.1465 27.5149ZM112.527 30L110.092 25.5801H109.408V30H106.556V18.2915H111.343C112.266 18.2915 113.05 18.4527 113.695 18.7751C114.351 19.0976 114.84 19.5424 115.163 20.1095C115.485 20.6654 115.646 21.2881 115.646 21.9775C115.646 22.7558 115.424 23.4508 114.979 24.0623C114.545 24.6739 113.901 25.1075 113.044 25.3633L115.746 30H112.527ZM109.408 23.562H111.176C111.699 23.562 112.088 23.4341 112.344 23.1784C112.611 22.9226 112.744 22.5612 112.744 22.0942C112.744 21.6495 112.611 21.2992 112.344 21.0435C112.088 20.7877 111.699 20.6599 111.176 20.6599H109.408V23.562ZM123.124 18.2915V30H120.272V18.2915H123.124ZM130.828 18.2915V25.2966C130.828 25.9971 131.001 26.5364 131.345 26.9144C131.69 27.2925 132.196 27.4815 132.863 27.4815C133.53 27.4815 134.042 27.2925 134.398 26.9144C134.754 26.5364 134.931 25.9971 134.931 25.2966V18.2915H137.784V25.2799C137.784 26.3251 137.561 27.2091 137.116 27.9318C136.672 28.6546 136.071 29.1994 135.315 29.5664C134.57 29.9333 133.736 30.1168 132.813 30.1168C131.89 30.1168 131.062 29.9388 130.328 29.583C129.605 29.2161 129.033 28.6713 128.61 27.9485C128.188 27.2146 127.976 26.3251 127.976 25.2799V18.2915H130.828ZM155.881 18.2915V30H153.029V22.9782L150.411 30H148.109L145.474 22.9615V30H142.622V18.2915H145.991L149.277 26.3974L152.529 18.2915H155.881Z" fill="black"/>
<path d="M77.3406 40.2354C77.3406 39.6967 77.4621 39.2135 77.705 38.7857C77.948 38.3527 78.278 38.0147 78.6952 37.7717C79.1177 37.5288 79.5851 37.4074 80.0973 37.4074C80.6994 37.4074 81.2249 37.5526 81.6737 37.843C82.1226 38.1335 82.4501 38.5454 82.656 39.0788H81.7926C81.6394 38.7461 81.4176 38.49 81.1272 38.3104C80.842 38.1309 80.4987 38.0411 80.0973 38.0411C79.7118 38.0411 79.3659 38.1309 79.0596 38.3104C78.7533 38.49 78.513 38.7461 78.3387 39.0788C78.1645 39.4062 78.0773 39.7918 78.0773 40.2354C78.0773 40.6737 78.1645 41.0592 78.3387 41.3919C78.513 41.7193 78.7533 41.9728 79.0596 42.1524C79.3659 42.3319 79.7118 42.4217 80.0973 42.4217C80.4987 42.4217 80.842 42.3346 81.1272 42.1603C81.4176 41.9808 81.6394 41.7246 81.7926 41.3919H82.656C82.4501 41.92 82.1226 42.3293 81.6737 42.6198C81.2249 42.9049 80.6994 43.0475 80.0973 43.0475C79.5851 43.0475 79.1177 42.9287 78.6952 42.6911C78.278 42.4481 77.948 42.1128 77.705 41.685C77.4621 41.2572 77.3406 40.774 77.3406 40.2354ZM87.579 43.0555C87.0667 43.0555 86.5993 42.9366 86.1769 42.699C85.7544 42.4561 85.419 42.1207 85.1708 41.6929C84.9279 41.2599 84.8064 40.774 84.8064 40.2354C84.8064 39.6967 84.9279 39.2135 85.1708 38.7857C85.419 38.3527 85.7544 38.0173 86.1769 37.7797C86.5993 37.5367 87.0667 37.4153 87.579 37.4153C88.0965 37.4153 88.5665 37.5367 88.989 37.7797C89.4115 38.0173 89.7442 38.35 89.9871 38.7778C90.2301 39.2056 90.3515 39.6914 90.3515 40.2354C90.3515 40.7793 90.2301 41.2652 89.9871 41.6929C89.7442 42.1207 89.4115 42.4561 88.989 42.699C88.5665 42.9366 88.0965 43.0555 87.579 43.0555ZM87.579 42.4296C87.9645 42.4296 88.3104 42.3399 88.6167 42.1603C88.9283 41.9808 89.1712 41.7246 89.3455 41.3919C89.5251 41.0592 89.6148 40.6737 89.6148 40.2354C89.6148 39.7918 89.5251 39.4062 89.3455 39.0788C89.1712 38.7461 88.9309 38.49 88.6246 38.3104C88.3183 38.1309 87.9698 38.0411 87.579 38.0411C87.1882 38.0411 86.8396 38.1309 86.5333 38.3104C86.227 38.49 85.9841 38.7461 85.8045 39.0788C85.6303 39.4062 85.5431 39.7918 85.5431 40.2354C85.5431 40.6737 85.6303 41.0592 85.8045 41.3919C85.9841 41.7246 86.227 41.9808 86.5333 42.1603C86.8449 42.3399 87.1935 42.4296 87.579 42.4296ZM96.9909 43H96.27L93.3707 38.6035V43H92.6499V37.4707H93.3707L96.27 41.8593V37.4707H96.9909V43ZM101.317 43.0555C100.953 43.0555 100.625 42.9921 100.335 42.8653C100.05 42.7333 99.8252 42.5538 99.6615 42.3267C99.4977 42.0943 99.4132 41.8276 99.408 41.5266H100.176C100.203 41.7854 100.308 42.0045 100.493 42.1841C100.683 42.3584 100.958 42.4455 101.317 42.4455C101.66 42.4455 101.93 42.361 102.125 42.192C102.326 42.0177 102.426 41.7959 102.426 41.5266C102.426 41.3153 102.368 41.1437 102.252 41.0117C102.136 40.8797 101.99 40.7793 101.816 40.7107C101.642 40.642 101.407 40.5681 101.111 40.4889C100.747 40.3938 100.454 40.2987 100.232 40.2037C100.015 40.1086 99.8278 39.9607 99.6694 39.7601C99.5162 39.5541 99.4397 39.2795 99.4397 38.9362C99.4397 38.6352 99.5162 38.3685 99.6694 38.1361C99.8225 37.9038 100.036 37.7242 100.311 37.5975C100.591 37.4707 100.91 37.4074 101.27 37.4074C101.787 37.4074 102.21 37.5367 102.537 37.7955C102.87 38.0543 103.057 38.3976 103.099 38.8253H102.307C102.281 38.6141 102.17 38.4292 101.975 38.2708C101.779 38.1071 101.52 38.0252 101.198 38.0252C100.897 38.0252 100.652 38.1045 100.462 38.2629C100.271 38.416 100.176 38.6326 100.176 38.9125C100.176 39.1131 100.232 39.2769 100.343 39.4036C100.459 39.5303 100.599 39.628 100.763 39.6967C100.932 39.7601 101.167 39.834 101.468 39.9185C101.832 40.0188 102.125 40.1192 102.347 40.2195C102.569 40.3146 102.759 40.4651 102.917 40.6711C103.076 40.8717 103.155 41.1463 103.155 41.4949C103.155 41.7642 103.084 42.0177 102.941 42.2554C102.798 42.493 102.587 42.6858 102.307 42.8336C102.027 42.9815 101.697 43.0555 101.317 43.0555ZM106.267 37.4786V40.9721C106.267 41.4632 106.386 41.8276 106.624 42.0653C106.867 42.3029 107.202 42.4217 107.63 42.4217C108.052 42.4217 108.382 42.3029 108.62 42.0653C108.863 41.8276 108.984 41.4632 108.984 40.9721V37.4786H109.705V40.9642C109.705 41.4236 109.613 41.8118 109.428 42.1286C109.243 42.4402 108.992 42.6726 108.676 42.8257C108.364 42.9789 108.013 43.0555 107.622 43.0555C107.231 43.0555 106.877 42.9789 106.56 42.8257C106.249 42.6726 106.001 42.4402 105.816 42.1286C105.636 41.8118 105.547 41.4236 105.547 40.9642V37.4786H106.267ZM112.975 42.4138H114.908V43H112.255V37.4786H112.975V42.4138ZM120.419 37.4786V38.0648H118.914V43H118.193V38.0648H116.68V37.4786H120.419ZM123.374 37.4786V43H122.653V37.4786H123.374ZM130.29 43H129.569L126.67 38.6035V43H125.949V37.4707H126.67L129.569 41.8593V37.4707H130.29V43ZM137.048 39.0788C136.895 38.7567 136.673 38.5085 136.383 38.3342C136.092 38.1546 135.754 38.0648 135.369 38.0648C134.983 38.0648 134.635 38.1546 134.323 38.3342C134.017 38.5085 133.774 38.7619 133.594 39.0947C133.42 39.4221 133.333 39.8023 133.333 40.2354C133.333 40.6684 133.42 41.0486 133.594 41.3761C133.774 41.7035 134.017 41.957 134.323 42.1365C134.635 42.3108 134.983 42.398 135.369 42.398C135.907 42.398 136.351 42.2369 136.7 41.9147C137.048 41.5926 137.251 41.1569 137.31 40.6077H135.107V40.0215H138.078V40.576C138.036 41.0302 137.893 41.4474 137.65 41.8276C137.407 42.2026 137.088 42.5009 136.692 42.7227C136.296 42.9393 135.855 43.0475 135.369 43.0475C134.857 43.0475 134.389 42.9287 133.967 42.6911C133.544 42.4481 133.209 42.1128 132.961 41.685C132.718 41.2572 132.596 40.774 132.596 40.2354C132.596 39.6967 132.718 39.2135 132.961 38.7857C133.209 38.3527 133.544 38.0173 133.967 37.7797C134.389 37.5367 134.857 37.4153 135.369 37.4153C135.955 37.4153 136.473 37.5605 136.921 37.851C137.376 38.1414 137.706 38.5507 137.912 39.0788H137.048Z" fill="black"/>
</svg>
